<?xml version="1.0" encoding="utf-8"?>
<!-- Generator: Adobe Illustrator 18.1.1, SVG Export Plug-In . SVG Version: 6.00 Build 0)  -->
<svg version="1.1" id="Layer_1" xmlns="http://www.w3.org/2000/svg" xmlns:xlink="http://www.w3.org/1999/xlink" x="0px" y="0px"
	 viewBox="0 0 1280 300" enable-background="new 0 0 1280 300" xml:space="preserve">
<g>
	<polygon fill="#EAE80F" points="584.1,30.2 598.1,0.2 609.3,26.7 	"/>
	<path fill="#EAE80F" d="M609.3,30.2L633,6.5c0,0-13.3,39.2-11.9,39.9c1.4,0.7-25.2,1.4,4.9-4.9c30.1-6.3,30.1-6.3,30.1-6.3
		l-23.4,27.3l3.2,6.3l32.8-7l-29.7,35l37.4-5.6l-20.3,38l30.1-7.1l-17.5,38.2l32.2-3.4l-13.3,38.5c0,0-1.4,39.2,13.3,7.7
		c14.7-31.5,14.7-31.5,14.7-31.5s7,28.2,9.1,28.3l7.7,9.5l16.1-32.2l9.8,32.2l12.6-4.9l10.5-24.5l6.2,27.6l-78.3,17.9l-73.3-32.2
		L609.3,30.2z"/>
	<path fill="#30BFB5" d="M638.1,55.9c-2.4-5.9-5-11.7-7.8-17.5c-5.3-11.2-14.8-20.3-28.1-17.9c-28,4.9-90.9,36.4-90.9,36.4
		s-25.9,10.5-23.1,32.9c2.8,22.3,15.3,46.1,15.4,46.2c8.8,16.7,33.6,7.2,46.4,1.7c8-3.4,15.4-7.9,23.2-11.5
		c3.3-1.5,27.3-13,26.5-15.7c2.9,9.7,2.2,22.5,3.3,32.9c2.3,20.5,5.2,40.9,9.6,61.1c9.8,44.8,39.2,95.1,46.9,95.8
		c7.7,0.7,21,0,19.6-12.6c-1.4-12.6-14-23.1-3.5-28.7c13.1-7,21.9,21.1,27.1,27.6c4.5,5.7,14.7,3.2,18.1-3.2
		c7.5-14.2-19.8-33.8,2.4-39.7c18.2-4.9,68.5-35.7,70.6-42.7c2.1-7-82.5,7-99.3-8.4c-7-6.4-10.9-17.2-14.7-25.7
		c-6.1-13.7-11.3-27.7-16.4-41.7C655,101.7,647.6,78.6,638.1,55.9z"/>
	<ellipse fill="#FFFFFF" cx="550.3" cy="86.4" rx="18.2" ry="20"/>
	<ellipse fill="#FFFFFF" cx="591.6" cy="64.8" rx="15.4" ry="21.5"/>
	<ellipse fill="#010045" cx="550.6" cy="84.9" rx="7.3" ry="8.7"/>
	<circle fill="#010045" cx="588.4" cy="64.6" r="7.3"/>
</g>
</svg>
